<svg xmlns="http://www.w3.org/2000/svg" xmlns:xlink="http://www.w3.org/1999/xlink" width="2000" zoomAndPan="magnify" viewBox="0 0 1500 1499.999933" height="2000" preserveAspectRatio="xMidYMid meet" version="1.0"><defs><g/><clipPath id="e942a8fd0d"><path d="M 2 0.800781 L 598 0.800781 L 598 172 L 2 172 Z M 2 0.800781 " clip-rule="nonzero"/></clipPath><clipPath id="06567024d8"><rect x="0" width="596" y="0" height="172"/></clipPath><clipPath id="10bf33238d"><path d="M 0.480469 132 L 599.28125 132 L 599.28125 366.800781 L 0.480469 366.800781 Z M 0.480469 132 " clip-rule="nonzero"/></clipPath><clipPath id="97a34e70d8"><rect x="0" width="600" y="0" height="235"/></clipPath><clipPath id="cb7ccc2c98"><rect x="0" width="600" y="0" height="367"/></clipPath></defs><g transform="matrix(1, 0, 0, 1, 450, 550)"><g clip-path="url(#cb7ccc2c98)"><g clip-path="url(#e942a8fd0d)"><g transform="matrix(1, 0, 0, 1, 2, 0.000000000000113687)"><g clip-path="url(#06567024d8)"><g fill="#efe3c4" fill-opacity="1"><g transform="translate(1.201017, 128.036206)"><g><path d="M 3.78125 -37.90625 C 3.78125 -44.28125 4.785156 -50.363281 6.796875 -56.15625 C 8.816406 -61.945312 11.691406 -67.128906 15.421875 -71.703125 C 19.160156 -76.285156 23.628906 -79.898438 28.828125 -82.546875 C 34.035156 -85.191406 39.789062 -86.515625 46.09375 -86.515625 C 51.375 -86.515625 56.21875 -85.335938 60.625 -82.984375 C 65.039062 -80.628906 68.628906 -77.648438 71.390625 -74.046875 C 70.972656 -83.359375 69.128906 -92.546875 65.859375 -101.609375 C 62.585938 -110.679688 57.632812 -118.660156 51 -125.546875 L 51 -125.921875 L 77.1875 -125.921875 L 77.1875 0 C 76.007812 -1.34375 74.664062 -2.285156 73.15625 -2.828125 C 71.644531 -3.378906 70.007812 -3.65625 68.25 -3.65625 C 65.644531 -3.65625 62.75 -3.253906 59.5625 -2.453125 C 56.375 -1.660156 52.992188 -0.84375 49.421875 0 C 45.859375 0.84375 42.1875 1.265625 38.40625 1.265625 C 32.613281 1.265625 27.554688 0.109375 23.234375 -2.203125 C 18.910156 -4.515625 15.300781 -7.554688 12.40625 -11.328125 C 9.507812 -15.109375 7.347656 -19.328125 5.921875 -23.984375 C 4.492188 -28.648438 3.78125 -33.289062 3.78125 -37.90625 Z M 21.65625 -24.5625 C 21.65625 -20.613281 22.390625 -17.019531 23.859375 -13.78125 C 25.328125 -10.550781 27.363281 -7.992188 29.96875 -6.109375 C 32.570312 -4.222656 35.46875 -3.28125 38.65625 -3.28125 C 43.945312 -3.28125 48.457031 -4.472656 52.1875 -6.859375 C 55.925781 -9.253906 59.054688 -12.421875 61.578125 -16.359375 C 64.097656 -20.304688 66.09375 -24.671875 67.5625 -29.453125 C 69.03125 -34.242188 70.054688 -39.070312 70.640625 -43.9375 C 71.234375 -48.8125 71.53125 -53.347656 71.53125 -57.546875 C 71.53125 -60.648438 71.003906 -63.691406 69.953125 -66.671875 C 68.898438 -69.648438 67.238281 -72.125 64.96875 -74.09375 C 62.707031 -76.070312 59.726562 -77.0625 56.03125 -77.0625 C 52 -77.0625 47.96875 -75.675781 43.9375 -72.90625 C 39.914062 -70.132812 36.222656 -66.289062 32.859375 -61.375 C 29.503906 -56.46875 26.796875 -50.863281 24.734375 -44.5625 C 22.679688 -38.269531 21.65625 -31.601562 21.65625 -24.5625 Z M 21.65625 -24.5625 "/></g></g></g><g fill="#efe3c4" fill-opacity="1"><g transform="translate(85.945118, 128.036206)"><g><path d="M 5.03125 -114.59375 C 5.03125 -117.78125 5.890625 -120.460938 7.609375 -122.640625 C 9.335938 -124.828125 11.753906 -125.921875 14.859375 -125.921875 C 17.878906 -125.921875 20.3125 -125.144531 22.15625 -123.59375 C 24.007812 -122.039062 25.375 -119.984375 26.25 -117.421875 C 27.132812 -114.859375 27.578125 -112.109375 27.578125 -109.171875 C 27.578125 -105.734375 26.925781 -102.289062 25.625 -98.84375 C 24.320312 -95.40625 22.492188 -92.550781 20.140625 -90.28125 C 17.796875 -88.019531 14.984375 -86.890625 11.703125 -86.890625 C 10.617188 -86.890625 9.800781 -87.078125 9.25 -87.453125 C 8.707031 -87.828125 8.351562 -88.179688 8.1875 -88.515625 C 10.957031 -88.429688 13.265625 -89.207031 15.109375 -90.84375 C 16.953125 -92.488281 18.378906 -94.546875 19.390625 -97.015625 C 20.398438 -99.492188 20.945312 -101.910156 21.03125 -104.265625 C 19.519531 -103.585938 17.96875 -103.25 16.375 -103.25 C 13.257812 -103.25 10.585938 -104.363281 8.359375 -106.59375 C 6.140625 -108.820312 5.03125 -111.488281 5.03125 -114.59375 Z M 5.03125 -114.59375 "/></g></g></g><g fill="#efe3c4" fill-opacity="1"><g transform="translate(118.55837, 128.036206)"><g><path d="M 35.765625 -32.359375 C 27.703125 -34.628906 21.34375 -37.441406 16.6875 -40.796875 C 12.03125 -44.148438 8.710938 -47.757812 6.734375 -51.625 C 4.765625 -55.488281 3.78125 -59.269531 3.78125 -62.96875 C 3.863281 -66.820312 4.722656 -70.34375 6.359375 -73.53125 C 7.992188 -76.726562 10.070312 -79.289062 12.59375 -81.21875 C 15.113281 -83.144531 17.671875 -84.109375 20.265625 -84.109375 L 68.875 -84.109375 L 68.875 -53.515625 L 68.375 -53.515625 C 65.851562 -58.722656 62.722656 -63.046875 58.984375 -66.484375 C 55.253906 -69.929688 51.207031 -72.640625 46.84375 -74.609375 C 42.476562 -76.578125 38.070312 -77.984375 33.625 -78.828125 C 29.175781 -79.671875 25.0625 -80.09375 21.28125 -80.09375 C 19.351562 -80.09375 17.585938 -79.125 15.984375 -77.1875 C 14.390625 -75.257812 13.59375 -73.078125 13.59375 -70.640625 C 13.59375 -67.703125 14.492188 -65.222656 16.296875 -63.203125 C 18.109375 -61.191406 20.460938 -59.453125 23.359375 -57.984375 C 26.253906 -56.515625 29.441406 -55.234375 32.921875 -54.140625 C 36.410156 -53.054688 39.789062 -51.96875 43.0625 -50.875 C 47.257812 -49.53125 51.242188 -48.226562 55.015625 -46.96875 C 58.796875 -45.707031 62.15625 -44.195312 65.09375 -42.4375 C 68.039062 -40.675781 70.351562 -38.390625 72.03125 -35.578125 C 73.707031 -32.765625 74.546875 -29.132812 74.546875 -24.6875 C 74.546875 -19.5625 73.160156 -15.046875 70.390625 -11.140625 C 67.617188 -7.234375 63.691406 -4.1875 58.609375 -2 C 53.535156 0.175781 47.554688 1.265625 40.671875 1.265625 C 36.140625 1.265625 32.023438 1.03125 28.328125 0.5625 C 24.640625 0.101562 20.988281 -0.796875 17.375 -2.140625 C 13.769531 -3.484375 9.695312 -5.5 5.15625 -8.1875 L 5.15625 -32.984375 L 5.546875 -32.984375 C 7.972656 -28.203125 10.84375 -24.003906 14.15625 -20.390625 C 17.476562 -16.785156 20.898438 -13.765625 24.421875 -11.328125 C 27.953125 -8.898438 31.3125 -7.054688 34.5 -5.796875 C 37.6875 -4.535156 40.375 -3.90625 42.5625 -3.90625 C 45.414062 -3.90625 48.394531 -4.425781 51.5 -5.46875 C 54.601562 -6.519531 57.265625 -8.03125 59.484375 -10 C 61.710938 -11.976562 62.828125 -14.351562 62.828125 -17.125 C 62.828125 -19.8125 62.09375 -21.953125 60.625 -23.546875 C 59.15625 -25.140625 57.160156 -26.394531 54.640625 -27.3125 C 52.128906 -28.238281 49.234375 -29.054688 45.953125 -29.765625 C 42.679688 -30.484375 39.285156 -31.347656 35.765625 -32.359375 Z M 35.765625 -32.359375 "/></g></g></g><g fill="#efe3c4" fill-opacity="1"><g transform="translate(198.139764, 128.036206)"><g><path d="M 23.171875 1.265625 C 19.304688 1.265625 16.300781 0.238281 14.15625 -1.8125 C 12.019531 -3.875 10.46875 -6.664062 9.5 -10.1875 C 8.539062 -13.71875 7.953125 -17.6875 7.734375 -22.09375 C 7.523438 -26.5 7.46875 -31.015625 7.5625 -35.640625 L 7.6875 -84.109375 L 33.5 -84.109375 L 33.5 -83.734375 C 26.613281 -77.273438 21.53125 -70.367188 18.25 -63.015625 C 14.976562 -55.671875 13.34375 -47.71875 13.34375 -39.15625 C 13.34375 -36.050781 13.738281 -32.945312 14.53125 -29.84375 C 15.332031 -26.738281 16.757812 -24.15625 18.8125 -22.09375 C 20.875 -20.039062 23.753906 -19.015625 27.453125 -19.015625 C 33.578125 -19.015625 38.96875 -20.398438 43.625 -23.171875 C 48.289062 -25.941406 52.175781 -29.78125 55.28125 -34.6875 C 58.382812 -39.601562 60.710938 -45.289062 62.265625 -51.75 C 63.816406 -58.21875 64.59375 -65.144531 64.59375 -72.53125 L 64.59375 -84.109375 L 70.265625 -84.109375 L 70.265625 0 L 47.46875 0 L 47.46875 -0.375 C 50.914062 -3.90625 53.601562 -7.722656 55.53125 -11.828125 C 57.457031 -15.941406 58.96875 -20.265625 60.0625 -24.796875 C 61.15625 -29.335938 62.125 -34 62.96875 -38.78125 C 61.363281 -34.414062 59.175781 -29.90625 56.40625 -25.25 C 53.632812 -20.59375 50.488281 -16.25 46.96875 -12.21875 C 43.445312 -8.1875 39.648438 -4.929688 35.578125 -2.453125 C 31.503906 0.0234375 27.367188 1.265625 23.171875 1.265625 Z M 23.171875 1.265625 "/></g></g></g><g fill="#efe3c4" fill-opacity="1"><g transform="translate(275.958266, 128.036206)"><g><path d="M 13.21875 0 L 7.5625 0 L 7.5625 -84.109375 L 30.34375 -84.109375 L 30.34375 -83.734375 C 26.988281 -80.210938 24.34375 -76.394531 22.40625 -72.28125 C 20.476562 -68.164062 18.96875 -63.84375 17.875 -59.3125 C 16.789062 -54.78125 15.785156 -50.117188 14.859375 -45.328125 C 16.535156 -49.691406 18.925781 -54.203125 22.03125 -58.859375 C 25.144531 -63.523438 28.691406 -67.875 32.671875 -71.90625 C 36.660156 -75.9375 40.859375 -79.1875 45.265625 -81.65625 C 49.671875 -84.132812 53.972656 -85.375 58.171875 -85.375 C 62.035156 -85.375 65.035156 -84.34375 67.171875 -82.28125 C 69.316406 -80.226562 70.867188 -77.4375 71.828125 -73.90625 C 72.796875 -70.382812 73.382812 -66.441406 73.59375 -62.078125 C 73.8125 -57.710938 73.878906 -53.179688 73.796875 -48.484375 L 73.671875 0 L 47.84375 0 L 47.84375 -0.375 C 54.726562 -6.84375 59.804688 -13.75 63.078125 -21.09375 C 66.359375 -28.4375 68 -36.390625 68 -44.953125 C 68 -51.921875 66.296875 -57.125 62.890625 -60.5625 C 59.492188 -64.007812 55.363281 -65.734375 50.5 -65.734375 C 46.46875 -65.734375 42.289062 -64.578125 37.96875 -62.265625 C 33.644531 -59.960938 29.613281 -56.539062 25.875 -52 C 22.132812 -47.46875 19.085938 -41.820312 16.734375 -35.0625 C 14.390625 -28.3125 13.21875 -20.484375 13.21875 -11.578125 Z M 13.21875 0 "/></g></g></g><g fill="#efe3c4" fill-opacity="1"><g transform="translate(357.302519, 128.036206)"><g><path d="M 3.78125 -37.90625 C 3.78125 -44.28125 4.785156 -50.363281 6.796875 -56.15625 C 8.816406 -61.945312 11.691406 -67.128906 15.421875 -71.703125 C 19.160156 -76.285156 23.628906 -79.898438 28.828125 -82.546875 C 34.035156 -85.191406 39.789062 -86.515625 46.09375 -86.515625 C 51.375 -86.515625 56.21875 -85.335938 60.625 -82.984375 C 65.039062 -80.628906 68.628906 -77.648438 71.390625 -74.046875 C 70.972656 -83.359375 69.128906 -92.546875 65.859375 -101.609375 C 62.585938 -110.679688 57.632812 -118.660156 51 -125.546875 L 51 -125.921875 L 77.1875 -125.921875 L 77.1875 0 C 76.007812 -1.34375 74.664062 -2.285156 73.15625 -2.828125 C 71.644531 -3.378906 70.007812 -3.65625 68.25 -3.65625 C 65.644531 -3.65625 62.75 -3.253906 59.5625 -2.453125 C 56.375 -1.660156 52.992188 -0.84375 49.421875 0 C 45.859375 0.84375 42.1875 1.265625 38.40625 1.265625 C 32.613281 1.265625 27.554688 0.109375 23.234375 -2.203125 C 18.910156 -4.515625 15.300781 -7.554688 12.40625 -11.328125 C 9.507812 -15.109375 7.347656 -19.328125 5.921875 -23.984375 C 4.492188 -28.648438 3.78125 -33.289062 3.78125 -37.90625 Z M 21.65625 -24.5625 C 21.65625 -20.613281 22.390625 -17.019531 23.859375 -13.78125 C 25.328125 -10.550781 27.363281 -7.992188 29.96875 -6.109375 C 32.570312 -4.222656 35.46875 -3.28125 38.65625 -3.28125 C 43.945312 -3.28125 48.457031 -4.472656 52.1875 -6.859375 C 55.925781 -9.253906 59.054688 -12.421875 61.578125 -16.359375 C 64.097656 -20.304688 66.09375 -24.671875 67.5625 -29.453125 C 69.03125 -34.242188 70.054688 -39.070312 70.640625 -43.9375 C 71.234375 -48.8125 71.53125 -53.347656 71.53125 -57.546875 C 71.53125 -60.648438 71.003906 -63.691406 69.953125 -66.671875 C 68.898438 -69.648438 67.238281 -72.125 64.96875 -74.09375 C 62.707031 -76.070312 59.726562 -77.0625 56.03125 -77.0625 C 52 -77.0625 47.96875 -75.675781 43.9375 -72.90625 C 39.914062 -70.132812 36.222656 -66.289062 32.859375 -61.375 C 29.503906 -56.46875 26.796875 -50.863281 24.734375 -44.5625 C 22.679688 -38.269531 21.65625 -31.601562 21.65625 -24.5625 Z M 21.65625 -24.5625 "/></g></g></g><g fill="#efe3c4" fill-opacity="1"><g transform="translate(442.046619, 128.036206)"><g><path d="M 26.3125 1.265625 C 22.03125 1.265625 18.296875 0.238281 15.109375 -1.8125 C 11.921875 -3.875 9.441406 -6.664062 7.671875 -10.1875 C 5.910156 -13.71875 5.03125 -17.75 5.03125 -22.28125 C 5.03125 -27.570312 5.953125 -32.019531 7.796875 -35.625 C 9.648438 -39.238281 12.128906 -42.242188 15.234375 -44.640625 C 18.335938 -47.035156 21.820312 -48.945312 25.6875 -50.375 C 29.550781 -51.800781 33.539062 -52.972656 37.65625 -53.890625 C 41.769531 -54.816406 45.710938 -55.613281 49.484375 -56.28125 C 53.265625 -56.957031 56.644531 -57.710938 59.625 -58.546875 C 62.601562 -59.390625 64.890625 -60.484375 66.484375 -61.828125 C 66.148438 -64.347656 65.269531 -66.925781 63.84375 -69.5625 C 62.414062 -72.207031 60.253906 -74.453125 57.359375 -76.296875 C 54.460938 -78.148438 50.535156 -79.078125 45.578125 -79.078125 C 43.148438 -79.078125 40.421875 -78.738281 37.390625 -78.0625 C 34.367188 -77.394531 30.863281 -75.863281 26.875 -73.46875 C 22.894531 -71.082031 18.21875 -67.367188 12.84375 -62.328125 L 12.34375 -62.328125 L 12.34375 -84.109375 L 46.34375 -84.109375 C 54.144531 -84.109375 60.457031 -81.78125 65.28125 -77.125 C 70.113281 -72.46875 72.53125 -65.898438 72.53125 -57.421875 L 72.53125 0 L 51.75 0 L 51.75 -0.375 C 55.695312 -6.414062 58.675781 -12.0625 60.6875 -17.3125 C 62.707031 -22.5625 64.15625 -27.410156 65.03125 -31.859375 C 65.914062 -36.304688 66.484375 -40.335938 66.734375 -43.953125 C 63.378906 -34.128906 59.914062 -25.859375 56.34375 -19.140625 C 52.78125 -12.421875 48.601562 -7.335938 43.8125 -3.890625 C 39.03125 -0.453125 33.195312 1.265625 26.3125 1.265625 Z M 23.671875 -24.046875 C 23.671875 -20.691406 24.46875 -17.734375 26.0625 -15.171875 C 27.65625 -12.609375 30.050781 -11.328125 33.25 -11.328125 C 36.4375 -11.328125 39.5 -12.351562 42.4375 -14.40625 C 45.375 -16.46875 48.097656 -19.15625 50.609375 -22.46875 C 53.128906 -25.789062 55.414062 -29.398438 57.46875 -33.296875 C 59.53125 -37.203125 61.296875 -41.066406 62.765625 -44.890625 C 64.234375 -48.710938 65.390625 -52.132812 66.234375 -55.15625 C 57.421875 -52.96875 49.820312 -50.695312 43.4375 -48.34375 C 37.0625 -46 32.171875 -42.957031 28.765625 -39.21875 C 25.367188 -35.488281 23.671875 -30.429688 23.671875 -24.046875 Z M 23.671875 -24.046875 "/></g></g></g><g fill="#efe3c4" fill-opacity="1"><g transform="translate(522.131675, 128.036206)"><g><path d="M 23.671875 1.265625 C 20.066406 1.265625 17.191406 0.34375 15.046875 -1.5 C 12.910156 -3.351562 11.316406 -5.894531 10.265625 -9.125 C 9.210938 -12.363281 8.5 -15.992188 8.125 -20.015625 C 7.75 -24.046875 7.5625 -28.285156 7.5625 -32.734375 C 7.5625 -37.179688 7.5625 -41.546875 7.5625 -45.828125 L 7.5625 -84.109375 L 30.21875 -84.109375 L 30.21875 -83.734375 C 26.53125 -79.703125 23.550781 -75.484375 21.28125 -71.078125 C 19.007812 -66.671875 17.285156 -62.390625 16.109375 -58.234375 C 14.941406 -54.078125 14.164062 -50.34375 13.78125 -47.03125 C 13.40625 -43.71875 13.21875 -41.09375 13.21875 -39.15625 C 13.21875 -36.050781 13.632812 -32.945312 14.46875 -29.84375 C 15.3125 -26.738281 16.847656 -24.15625 19.078125 -22.09375 C 21.304688 -20.039062 24.390625 -19.015625 28.328125 -19.015625 C 34.710938 -19.015625 39.894531 -20.101562 43.875 -22.28125 C 47.863281 -24.46875 50.90625 -27.257812 53 -30.65625 C 55.101562 -34.0625 56.550781 -37.628906 57.34375 -41.359375 C 58.144531 -45.097656 58.546875 -48.519531 58.546875 -51.625 C 58.546875 -56.5 57.707031 -60.90625 56.03125 -64.84375 C 54.351562 -68.789062 52.398438 -72.171875 50.171875 -74.984375 C 47.953125 -77.796875 46.003906 -79.957031 44.328125 -81.46875 C 42.648438 -82.976562 41.8125 -83.734375 41.8125 -83.734375 L 41.8125 -84.109375 L 60.953125 -84.109375 C 60.953125 -84.109375 61.515625 -83.3125 62.640625 -81.71875 C 63.773438 -80.125 64.890625 -77.476562 65.984375 -73.78125 C 67.078125 -70.09375 67.625 -65.144531 67.625 -58.9375 C 67.625 -54.65625 66.929688 -50.160156 65.546875 -45.453125 C 64.160156 -40.753906 62.289062 -36.097656 59.9375 -31.484375 C 57.582031 -26.867188 54.9375 -22.546875 52 -18.515625 C 49.0625 -14.484375 46.039062 -11.039062 42.9375 -8.1875 C 39.664062 -5.164062 37.441406 -1.304688 36.265625 3.390625 C 35.085938 8.097656 34.5 13.140625 34.5 18.515625 C 34.5 23.710938 35.316406 28.367188 36.953125 32.484375 C 38.585938 36.597656 40.664062 39.75 43.1875 41.9375 L 43.1875 42.3125 L 22.28125 42.3125 C 20.9375 40.550781 19.929688 38.347656 19.265625 35.703125 C 18.597656 33.054688 18.265625 30.429688 18.265625 27.828125 C 18.265625 23.960938 19.039062 20.304688 20.59375 16.859375 C 22.144531 13.421875 24.113281 10.148438 26.5 7.046875 C 28.894531 3.941406 31.351562 1.085938 33.875 -1.515625 C 30.34375 0.335938 26.941406 1.265625 23.671875 1.265625 Z M 23.671875 1.265625 "/></g></g></g></g></g></g><g clip-path="url(#10bf33238d)"><g transform="matrix(1, 0, 0, 1, 0, 132)"><g clip-path="url(#97a34e70d8)"><g fill="#efe3c4" fill-opacity="1"><g transform="translate(1.662876, 174.976965)"><g><path d="M 93.234375 -47.09375 L 93.234375 -47.5625 C 93.234375 -53.800781 92.253906 -58.953125 90.296875 -63.015625 C 88.347656 -67.078125 85.890625 -70.238281 82.921875 -72.5 C 79.960938 -74.769531 77 -76.410156 74.03125 -77.421875 C 71.0625 -78.441406 68.597656 -79.066406 66.640625 -79.296875 C 64.691406 -79.535156 63.71875 -79.65625 63.71875 -79.65625 L 37.71875 -79.65625 L 37.71875 -4.21875 L 63.25 -4.21875 C 69.1875 -4.21875 74.066406 -5.390625 77.890625 -7.734375 C 81.710938 -10.078125 84.675781 -13.082031 86.78125 -16.75 C 88.894531 -20.414062 90.421875 -24.238281 91.359375 -28.21875 C 92.296875 -32.207031 92.84375 -35.921875 93 -39.359375 C 93.15625 -42.796875 93.234375 -45.375 93.234375 -47.09375 Z M 55.046875 -160 L 37.71875 -160 L 37.71875 -83.859375 L 58.328125 -83.859375 C 64.734375 -83.859375 69.890625 -85.300781 73.796875 -88.1875 C 77.703125 -91.082031 80.664062 -94.640625 82.6875 -98.859375 C 84.71875 -103.078125 86.125 -107.253906 86.90625 -111.390625 C 87.6875 -115.523438 88.113281 -119.035156 88.1875 -121.921875 C 88.269531 -124.816406 88.3125 -126.265625 88.3125 -126.265625 L 88.3125 -126.5 C 88.3125 -133.375 87.179688 -138.957031 84.921875 -143.25 C 82.660156 -147.550781 79.890625 -150.867188 76.609375 -153.203125 C 73.328125 -155.546875 70.046875 -157.1875 66.765625 -158.125 C 63.484375 -159.0625 60.707031 -159.609375 58.4375 -159.765625 C 56.175781 -159.921875 55.046875 -160 55.046875 -160 Z M 77.078125 -82.703125 C 88.785156 -80.203125 97.878906 -76.097656 104.359375 -70.390625 C 110.847656 -64.691406 114.09375 -55.753906 114.09375 -43.578125 L 114.09375 -43.34375 C 114.09375 -39.28125 113.46875 -34.785156 112.21875 -29.859375 C 110.96875 -24.941406 108.738281 -20.21875 105.53125 -15.6875 C 102.332031 -11.164062 97.804688 -7.421875 91.953125 -4.453125 C 86.097656 -1.484375 78.484375 0 69.109375 0 L 2.8125 0 L 2.8125 -2.34375 C 2.8125 -2.34375 3.941406 -2.578125 6.203125 -3.046875 C 8.472656 -3.515625 10.78125 -4.722656 13.125 -6.671875 C 15.46875 -8.628906 16.867188 -11.875 17.328125 -16.40625 L 17.328125 -147.59375 C 16.867188 -152.113281 15.46875 -155.347656 13.125 -157.296875 C 10.78125 -159.253906 8.472656 -160.46875 6.203125 -160.9375 C 3.941406 -161.40625 2.8125 -161.640625 2.8125 -161.640625 L 2.8125 -163.984375 L 57.859375 -163.984375 C 67.390625 -163.984375 75.351562 -162.691406 81.75 -160.109375 C 88.15625 -157.535156 93.234375 -154.179688 96.984375 -150.046875 C 100.734375 -145.910156 103.425781 -141.457031 105.0625 -136.6875 C 106.707031 -131.925781 107.609375 -127.359375 107.765625 -122.984375 L 107.765625 -122.75 C 108.078125 -116.351562 107.375 -110.265625 105.65625 -104.484375 C 103.9375 -98.703125 100.769531 -93.859375 96.15625 -89.953125 C 91.550781 -86.046875 85.191406 -83.628906 77.078125 -82.703125 Z M 77.078125 -82.703125 "/></g></g></g><g fill="#efe3c4" fill-opacity="1"><g transform="translate(113.635322, 174.976965)"><g><path d="M 105.421875 -122.984375 C 105.421875 -122.984375 105.34375 -121.539062 105.1875 -118.65625 C 105.03125 -115.769531 104.441406 -112.21875 103.421875 -108 C 102.410156 -103.78125 100.5 -99.5625 97.6875 -95.34375 C 94.875 -91.125 90.851562 -87.570312 85.625 -84.6875 C 80.394531 -81.800781 73.5625 -80.359375 65.125 -80.359375 L 42.171875 -80.59375 L 60.90625 -74.265625 L 95.109375 -19.90625 C 98.703125 -14.289062 102.140625 -10.234375 105.421875 -7.734375 C 108.703125 -5.234375 111.394531 -3.707031 113.5 -3.15625 C 115.613281 -2.613281 116.671875 -2.34375 116.671875 -2.34375 L 116.671875 0 L 82.703125 0 L 37.953125 -80.59375 L 37.71875 -22.71875 C 37.71875 -18.195312 38.5 -14.566406 40.0625 -11.828125 C 41.625 -9.097656 43.34375 -7.066406 45.21875 -5.734375 C 47.09375 -4.410156 48.769531 -3.515625 50.25 -3.046875 C 51.726562 -2.578125 52.46875 -2.34375 52.46875 -2.34375 L 52.46875 0 L 2.8125 0 L 2.8125 -2.34375 C 3.28125 -2.5 4.609375 -3.003906 6.796875 -3.859375 C 8.984375 -4.722656 11.171875 -6.363281 13.359375 -8.78125 C 15.546875 -11.207031 16.867188 -14.835938 17.328125 -19.671875 L 17.328125 -147.59375 C 16.867188 -152.113281 15.46875 -155.347656 13.125 -157.296875 C 10.78125 -159.253906 8.472656 -160.46875 6.203125 -160.9375 C 3.941406 -161.40625 2.8125 -161.640625 2.8125 -161.640625 L 2.8125 -163.984375 L 55.515625 -163.984375 C 65.046875 -163.984375 73.007812 -162.691406 79.40625 -160.109375 C 85.8125 -157.535156 90.890625 -154.179688 94.640625 -150.046875 C 98.390625 -145.910156 101.082031 -141.457031 102.71875 -136.6875 C 104.363281 -131.925781 105.265625 -127.359375 105.421875 -122.984375 Z M 55.984375 -84.09375 C 62.390625 -84.09375 67.546875 -85.457031 71.453125 -88.1875 C 75.359375 -90.925781 78.328125 -94.285156 80.359375 -98.265625 C 82.390625 -102.253906 83.789062 -106.203125 84.5625 -110.109375 C 85.34375 -114.015625 85.769531 -117.332031 85.84375 -120.0625 C 85.925781 -122.789062 85.96875 -124.15625 85.96875 -124.15625 L 85.96875 -124.625 C 85.96875 -131.65625 84.835938 -137.4375 82.578125 -141.96875 C 80.316406 -146.5 77.546875 -149.972656 74.265625 -152.390625 C 70.984375 -154.804688 67.703125 -156.5625 64.421875 -157.65625 C 61.140625 -158.75 58.363281 -159.410156 56.09375 -159.640625 C 53.832031 -159.878906 52.703125 -160 52.703125 -160 L 37.71875 -160 L 37.71875 -84.09375 Z M 55.984375 -84.09375 "/></g></g></g><g fill="#efe3c4" fill-opacity="1"><g transform="translate(233.338266, 174.976965)"><g><path d="M 114.328125 -145.25 L 114.328125 -18.734375 C 114.328125 -14.835938 115.066406 -11.753906 116.546875 -9.484375 C 118.023438 -7.222656 119.703125 -5.582031 121.578125 -4.5625 C 123.453125 -3.550781 125.128906 -2.925781 126.609375 -2.6875 C 128.097656 -2.457031 128.84375 -2.34375 128.84375 -2.34375 L 128.84375 0 L 79.1875 0 L 79.1875 -2.34375 C 79.1875 -2.34375 79.925781 -2.457031 81.40625 -2.6875 C 82.882812 -2.925781 84.597656 -3.550781 86.546875 -4.5625 C 88.503906 -5.582031 90.222656 -7.222656 91.703125 -9.484375 C 93.191406 -11.753906 93.9375 -14.835938 93.9375 -18.734375 L 93.9375 -22.953125 L 37.953125 -138.21875 L 37.953125 -18.734375 C 37.953125 -14.835938 38.691406 -11.753906 40.171875 -9.484375 C 41.660156 -7.222656 43.34375 -5.582031 45.21875 -4.5625 C 47.09375 -3.550781 48.769531 -2.925781 50.25 -2.6875 C 51.726562 -2.457031 52.46875 -2.34375 52.46875 -2.34375 L 52.46875 0 L 2.8125 0 L 2.8125 -2.34375 C 2.8125 -2.34375 3.550781 -2.457031 5.03125 -2.6875 C 6.519531 -2.925781 8.203125 -3.550781 10.078125 -4.5625 C 11.953125 -5.582031 13.628906 -7.222656 15.109375 -9.484375 C 16.585938 -11.753906 17.328125 -14.835938 17.328125 -18.734375 L 17.328125 -145.25 C 17.328125 -149.144531 16.585938 -152.222656 15.109375 -154.484375 C 13.628906 -156.753906 11.953125 -158.394531 10.078125 -159.40625 C 8.203125 -160.425781 6.519531 -161.050781 5.03125 -161.28125 C 3.550781 -161.519531 2.8125 -161.640625 2.8125 -161.640625 L 2.8125 -163.984375 L 52.46875 -163.984375 L 52.46875 -161.640625 C 52.46875 -161.640625 51.492188 -161.441406 49.546875 -161.046875 C 47.597656 -160.660156 45.488281 -159.6875 43.21875 -158.125 C 40.957031 -156.5625 39.359375 -153.988281 38.421875 -150.40625 L 93.9375 -36.546875 L 93.9375 -145.25 C 93.9375 -149.144531 93.191406 -152.222656 91.703125 -154.484375 C 90.222656 -156.753906 88.503906 -158.394531 86.546875 -159.40625 C 84.597656 -160.425781 82.882812 -161.050781 81.40625 -161.28125 C 79.925781 -161.519531 79.1875 -161.640625 79.1875 -161.640625 L 79.1875 -163.984375 L 128.84375 -163.984375 L 128.84375 -161.640625 C 128.84375 -161.640625 128.097656 -161.519531 126.609375 -161.28125 C 125.128906 -161.050781 123.453125 -160.425781 121.578125 -159.40625 C 119.703125 -158.394531 118.023438 -156.796875 116.546875 -154.609375 C 115.066406 -152.421875 114.328125 -149.300781 114.328125 -145.25 Z M 114.328125 -145.25 "/></g></g></g><g fill="#efe3c4" fill-opacity="1"><g transform="translate(356.08616, 174.976965)"><g><path d="M 107.53125 -135.640625 C 104.40625 -143.453125 99.054688 -149.582031 91.484375 -154.03125 C 83.910156 -158.476562 75.75 -160.703125 67 -160.703125 C 59.34375 -160.703125 52.9375 -158.789062 47.78125 -154.96875 C 42.632812 -151.144531 38.5 -146.265625 35.375 -140.328125 C 32.25 -134.390625 29.863281 -128.0625 28.21875 -121.34375 C 26.582031 -114.632812 25.453125 -108.3125 24.828125 -102.375 C 24.203125 -96.4375 23.890625 -91.554688 23.890625 -87.734375 C 23.890625 -83.910156 23.890625 -82 23.890625 -82 C 23.890625 -82 23.890625 -80.125 23.890625 -76.375 C 23.890625 -72.625 24.160156 -67.738281 24.703125 -61.71875 C 25.253906 -55.707031 26.3125 -49.382812 27.875 -42.75 C 29.4375 -36.113281 31.78125 -29.789062 34.90625 -23.78125 C 38.03125 -17.769531 42.207031 -12.890625 47.4375 -9.140625 C 52.664062 -5.390625 59.1875 -3.515625 67 -3.515625 C 74.34375 -3.515625 81.253906 -5.660156 87.734375 -9.953125 C 94.210938 -14.253906 100.066406 -20.226562 105.296875 -27.875 C 110.535156 -35.53125 114.945312 -44.195312 118.53125 -53.875 L 118.53125 -29.046875 C 115.414062 -24.046875 111.59375 -19.242188 107.0625 -14.640625 C 102.53125 -10.035156 97.0625 -6.328125 90.65625 -3.515625 C 84.257812 -0.703125 76.375 0.703125 67 0.703125 C 55.601562 0.703125 46.078125 -1.285156 38.421875 -5.265625 C 30.765625 -9.253906 24.59375 -14.332031 19.90625 -20.5 C 15.226562 -26.664062 11.675781 -33.257812 9.25 -40.28125 C 6.832031 -47.3125 5.191406 -53.910156 4.328125 -60.078125 C 3.472656 -66.253906 3.003906 -71.332031 2.921875 -75.3125 C 2.847656 -79.300781 2.8125 -81.296875 2.8125 -81.296875 C 2.8125 -81.296875 2.847656 -83.320312 2.921875 -87.375 C 3.003906 -91.4375 3.472656 -96.628906 4.328125 -102.953125 C 5.191406 -109.285156 6.832031 -116.003906 9.25 -123.109375 C 11.675781 -130.210938 15.226562 -136.925781 19.90625 -143.25 C 24.59375 -149.570312 30.765625 -154.765625 38.421875 -158.828125 C 46.078125 -162.890625 55.601562 -164.921875 67 -164.921875 C 74.8125 -164.921875 82.226562 -163.671875 89.25 -161.171875 C 96.28125 -158.671875 102.609375 -154.691406 108.234375 -149.234375 C 109.015625 -148.765625 109.5625 -148.53125 109.875 -148.53125 C 110.96875 -148.53125 111.90625 -149.304688 112.6875 -150.859375 C 113.46875 -152.421875 114.050781 -154.21875 114.4375 -156.25 C 114.832031 -158.28125 115.144531 -160.078125 115.375 -161.640625 C 115.613281 -163.203125 115.734375 -163.984375 115.734375 -163.984375 L 118.0625 -163.984375 L 118.0625 -99.5625 L 113.859375 -99.5625 C 113.859375 -99.5625 113.78125 -100.769531 113.625 -103.1875 C 113.46875 -105.613281 113.15625 -108.660156 112.6875 -112.328125 C 112.21875 -115.992188 111.550781 -119.9375 110.6875 -124.15625 C 109.832031 -128.375 108.78125 -132.203125 107.53125 -135.640625 Z M 107.53125 -135.640625 "/></g></g></g><g fill="#efe3c4" fill-opacity="1"><g transform="translate(476.491814, 174.976965)"><g><path d="M 118.765625 -163.984375 L 118.765625 -161.640625 C 118.765625 -161.640625 118.023438 -161.519531 116.546875 -161.28125 C 115.066406 -161.050781 113.390625 -160.425781 111.515625 -159.40625 C 109.640625 -158.394531 107.957031 -156.796875 106.46875 -154.609375 C 104.988281 -152.421875 104.25 -149.300781 104.25 -145.25 L 104.25 -18.734375 C 104.25 -14.835938 104.988281 -11.753906 106.46875 -9.484375 C 107.957031 -7.222656 109.640625 -5.582031 111.515625 -4.5625 C 113.390625 -3.550781 115.066406 -2.925781 116.546875 -2.6875 C 118.023438 -2.457031 118.765625 -2.34375 118.765625 -2.34375 L 118.765625 0 L 69.109375 0 L 69.109375 -2.34375 C 69.109375 -2.34375 69.847656 -2.457031 71.328125 -2.6875 C 72.816406 -2.925781 74.5 -3.550781 76.375 -4.5625 C 78.25 -5.582031 79.925781 -7.222656 81.40625 -9.484375 C 82.882812 -11.753906 83.625 -14.835938 83.625 -18.734375 L 83.625 -101.203125 L 37.953125 -101.203125 L 37.953125 -18.734375 C 37.953125 -14.835938 38.691406 -11.753906 40.171875 -9.484375 C 41.660156 -7.222656 43.34375 -5.582031 45.21875 -4.5625 C 47.09375 -3.550781 48.769531 -2.925781 50.25 -2.6875 C 51.726562 -2.457031 52.46875 -2.34375 52.46875 -2.34375 L 52.46875 0 L 2.8125 0 L 2.8125 -2.34375 C 2.8125 -2.34375 3.550781 -2.457031 5.03125 -2.6875 C 6.519531 -2.925781 8.203125 -3.550781 10.078125 -4.5625 C 11.953125 -5.582031 13.628906 -7.222656 15.109375 -9.484375 C 16.585938 -11.753906 17.328125 -14.835938 17.328125 -18.734375 L 17.328125 -145.25 C 17.328125 -149.144531 16.585938 -152.222656 15.109375 -154.484375 C 13.628906 -156.753906 11.953125 -158.394531 10.078125 -159.40625 C 8.203125 -160.425781 6.519531 -161.050781 5.03125 -161.28125 C 3.550781 -161.519531 2.8125 -161.640625 2.8125 -161.640625 L 2.8125 -163.984375 L 52.46875 -163.984375 L 52.46875 -161.640625 C 52.46875 -161.640625 51.726562 -161.519531 50.25 -161.28125 C 48.769531 -161.050781 47.09375 -160.390625 45.21875 -159.296875 C 43.34375 -158.203125 41.660156 -156.445312 40.171875 -154.03125 C 38.691406 -151.613281 37.953125 -148.296875 37.953125 -144.078125 L 37.953125 -105.421875 L 83.859375 -105.421875 L 83.859375 -132.125 L 83.625 -132.125 L 83.625 -145.25 C 83.625 -149.144531 82.882812 -152.222656 81.40625 -154.484375 C 79.925781 -156.753906 78.25 -158.394531 76.375 -159.40625 C 74.5 -160.425781 72.816406 -161.050781 71.328125 -161.28125 C 69.847656 -161.519531 69.109375 -161.640625 69.109375 -161.640625 L 69.109375 -163.984375 Z M 118.765625 -163.984375 "/></g></g></g></g></g></g></g></g></svg>